<svg width="180" height="180" viewBox="0 0 180 180" fill="none" xmlns="http://www.w3.org/2000/svg">
  <!-- Background -->
  <defs>
    <linearGradient id="apple-gradient" x1="0%" y1="0%" x2="100%" y2="100%">
      <stop offset="0%" style="stop-color:#1a365d;stop-opacity:1" />
      <stop offset="100%" style="stop-color:#2563eb;stop-opacity:1" />
    </linearGradient>
  </defs>
  
  <rect width="180" height="180" rx="40" fill="url(#apple-gradient)"/>
  
  <!-- Gráfico -->
  <g transform="translate(20, 40)">
    <path d="M15 95 L40 65 L70 75 L100 30 L130 40" 
          stroke="#60a5fa" 
          stroke-width="6" 
          stroke-linecap="round" 
          stroke-linejoin="round"
          fill="none"/>
    
    <path d="M100 30 L130 40 L120 60" 
          stroke="#60a5fa" 
          stroke-width="6" 
          stroke-linecap="round" 
          stroke-linejoin="round"
          fill="none"/>
    
    <!-- Pontos -->
    <circle cx="15" cy="95" r="5" fill="#ffffff"/>
    <circle cx="40" cy="65" r="5" fill="#ffffff"/>
    <circle cx="70" cy="75" r="5" fill="#ffffff"/>
    <circle cx="100" cy="30" r="5" fill="#ffffff"/>
    <circle cx="130" cy="40" r="5" fill="#ffffff"/>
  </g>
  
  <!-- Sino maior -->
  <g transform="translate(115, 110)">
    <path d="M20 12 C20 6 16 2 10 2 C4 2 0 6 0 12 L0 18 C-2 22 -2 26 2 30 L18 30 C22 26 22 22 20 18 Z" 
          fill="#fbbf24" 
          stroke="#ffffff" 
          stroke-width="2"/>
    
    <!-- Badge -->
    <circle cx="18" cy="5" r="8" fill="#ef4444"/>
    <circle cx="18" cy="5" r="6" fill="#ffffff"/>
    <text x="18" y="9" text-anchor="middle" font-size="10" font-weight="bold" fill="#ef4444">!</text>
  </g>
</svg>
